<?xml version="1.0" encoding="UTF-8" standalone="no"?><!DOCTYPE svg PUBLIC "-//W3C//DTD SVG 1.1//EN" "http://www.w3.org/Graphics/SVG/1.1/DTD/svg11.dtd"><svg width="1585px" height="793px" version="1.1" xmlns="http://www.w3.org/2000/svg" xmlns:xlink="http://www.w3.org/1999/xlink" xml:space="preserve" xmlns:serif="http://www.serif.com/" style="fill-rule:evenodd;clip-rule:evenodd;stroke-linejoin:round;stroke-miterlimit:2;"><rect id="cross-intersection-2-lanes-no-markings" serif:id="cross intersection 2 lanes no markings" x="0.152" y="0.425" width="1584" height="792" style="fill:none;"/><g id="grass"><g id="final"><g id="_-grass-F6" serif:id=" grass F6"><path id="F6" d="M0.152,360.425l216,-108l216,108l-216,108l-216,-108Z" style="fill:#45653d;"/></g><g id="_-grass-F61" serif:id=" grass F6"><path id="F61" serif:id="F6" d="M648.152,684.425l216,-108l216,108l-216,108l-216,-108Z" style="fill:#45653d;"/></g><g id="_-grass-F62" serif:id=" grass F6"><path id="F62" serif:id="F6" d="M504.152,108.425l216,-108l216,108l-216,108l-216,-108Z" style="fill:#45653d;"/></g><g id="_-grass-F63" serif:id=" grass F6"><path id="F63" serif:id="F6" d="M1152.15,432.425l216,-108l216,108l-216,108l-216,-108Z" style="fill:#45653d;"/></g><g id="grass-B6" serif:id="grass B6"><path id="B6" d="M288.152,504.425l-72,-36l216,-108l72,36l-216,108Z" style="fill:#45653d;"/></g><g id="grass-B61" serif:id="grass B6"><path id="B61" serif:id="B6" d="M648.152,684.425l-72,-36l216,-108l72,36l-216,108Z" style="fill:#45653d;"/></g><g id="grass-B62" serif:id="grass B6"><path id="B62" serif:id="B6" d="M792.152,252.425l-72,-36l216,-108l72,36l-216,108Z" style="fill:#45653d;"/></g><g id="grass-B63" serif:id="grass B6"><path id="B63" serif:id="B6" d="M1152.15,432.425l-72,-36l216,-108l72,36l-216,108Z" style="fill:#45653d;"/></g></g></g><g id="road"><g id="final1" serif:id="final"><g id="Road-D6" serif:id="Road D6"><path id="D6" d="M216.152,252.425l144,-72l216,108l-144,72l-216,-108Z" style="fill:#555;"/></g><g id="Road-D61" serif:id="Road D6"><path id="D61" serif:id="D6" d="M432.152,360.425l144,-72l216,108l-144,72l-216,-108Z" style="fill:#555;"/></g><g id="Road-D62" serif:id="Road D6"><path id="D62" serif:id="D6" d="M648.152,468.425l144,-72l216,108l-144,72l-216,-108Z" style="fill:#555;"/></g><g id="Road-D63" serif:id="Road D6"><path id="D63" serif:id="D6" d="M864.152,576.425l144,-72l216,108l-144,72l-216,-108Z" style="fill:#555;"/></g><g id="Road-D64" serif:id="Road D6"><path id="D64" serif:id="D6" d="M360.152,180.425l144,-72l216,108l-144,72l-216,-108Z" style="fill:#555;"/></g><g id="Road-D65" serif:id="Road D6"><path id="D65" serif:id="D6" d="M576.152,288.425l144,-72l216,108l-144,72l-216,-108Z" style="fill:#555;"/></g><g id="Road-D66" serif:id="Road D6"><path id="D66" serif:id="D6" d="M792.152,396.425l144,-72l216,108l-144,72l-216,-108Z" style="fill:#555;"/></g><g id="Road-D67" serif:id="Road D6"><path id="D67" serif:id="D6" d="M1008.15,504.425l144,-72l216,108l-144,72l-216,-108Z" style="fill:#555;"/></g><g id="Road-D68" serif:id="Road D6"><path id="D68" serif:id="D6" d="M504.152,396.425l144,72l-216,108l-144,-72l216,-108Z" style="fill:#555;"/></g><g id="Road-D69" serif:id="Road D6"><path id="D69" serif:id="D6" d="M648.152,468.425l144,72l-216,108l-144,-72l216,-108Z" style="fill:#555;"/></g><g id="Road-D610" serif:id="Road D6"><path id="D610" serif:id="D6" d="M1008.15,144.425l144,72l-216,108l-144,-72l216,-108Z" style="fill:#555;"/></g><g id="Road-D611" serif:id="Road D6"><path id="D611" serif:id="D6" d="M1152.15,216.425l144,72l-216,108l-144,-72l216,-108Z" style="fill:#555;"/></g></g></g><g id="road-geometry" serif:id="road geometry"><path d="M1156.15,218.425l-720,360l-8,-4l720,-360l8,4Z" style="fill:#fff;"/><path d="M1156.82,219.767l-720.671,360.335l-8.671,-4.335l0,-2.684l720.671,-360.335l8.671,4.335l0,2.684Zm-0.671,-1.342l-8,-4l-720,360l8,4l720,-360Z"/><path d="M364.152,178.425l864,432l-8,4l-864,-432l8,-4Z" style="fill:#fff;"/><path d="M1228.82,609.083l0,2.684l-8.671,4.335l-864.671,-432.335l0,-2.684l8.671,-4.335l864.671,432.335Zm-864.671,-430.658l-8,4l864,432l8,-4l-864,-432Z"/></g></svg>