<?xml version="1.0" encoding="UTF-8" standalone="no"?><!DOCTYPE svg PUBLIC "-//W3C//DTD SVG 1.1//EN" "http://www.w3.org/Graphics/SVG/1.1/DTD/svg11.dtd"><svg width="1490px" height="1318px" version="1.1" xmlns="http://www.w3.org/2000/svg" xmlns:xlink="http://www.w3.org/1999/xlink" xml:space="preserve" xmlns:serif="http://www.serif.com/" style="fill-rule:evenodd;clip-rule:evenodd;stroke-linejoin:round;stroke-miterlimit:2;"><rect id="no-intersection-one-lane" serif:id="no intersection one lane" x="0.825" y="0.666" width="1488.33" height="1316.6" style="fill:none;"/><g id="grass"><g id="final"><g id="_-grass-F6" serif:id=" grass F6"><path id="F6" d="M42.111,523.526l216,-108l216,108l-216,108l-216,-108Z" style="fill:#45653d;"/></g><g id="_-grass-F61" serif:id=" grass F6"><path id="F61" serif:id="F6" d="M258.111,631.526l216,-108l216,108l-216,108l-216,-108Z" style="fill:#45653d;"/></g><g id="_-grass-F62" serif:id=" grass F6"><path id="F62" serif:id="F6" d="M474.111,739.526l216,-108l216,108l-216,108l-216,-108Z" style="fill:#45653d;"/></g><g id="_-grass-F63" serif:id=" grass F6"><path id="F63" serif:id="F6" d="M402.111,343.526l216,-108l216,108l-216,108l-216,-108Z" style="fill:#45653d;"/></g><g id="_-grass-F64" serif:id=" grass F6"><path id="F64" serif:id="F6" d="M618.111,451.526l216,-108l216,108l-216,108l-216,-108Z" style="fill:#45653d;"/></g><g id="_-grass-F65" serif:id=" grass F6"><path id="F65" serif:id="F6" d="M834.111,559.526l216,-108l216,108l-216,108l-216,-108Z" style="fill:#45653d;"/></g></g></g><g id="road"><g id="final1" serif:id="final"><g id="Road-D6" serif:id="Road D6"><path id="D6" d="M690.111,631.526l144,-72l216,108l-144,72l-216,-108Z" style="fill:#555;"/></g><g id="Road-D61" serif:id="Road D6"><path id="D61" serif:id="D6" d="M474.111,523.526l144,-72l216,108l-144,72l-216,-108Z" style="fill:#555;"/></g><g id="Road-D62" serif:id="Road D6"><path id="D62" serif:id="D6" d="M258.111,415.526l144,-72l216,108l-144,72l-216,-108Z" style="fill:#555;"/></g></g></g><g id="road-geometry" serif:id="road geometry"><path d="M334.111,377.526l648,324l-8,4l-648,-324l8,-4Z" style="fill:#fff;"/><path d="M982.782,700.184l0,2.683l-8.671,4.336l-648.67,-324.336l-0,-2.683l8.67,-4.336l648.671,324.336Zm-648.671,-322.658l-8,4l648,324l8,-4l-648,-324Z"/></g></svg>