<?xml version="1.0" encoding="UTF-8" standalone="no"?><!DOCTYPE svg PUBLIC "-//W3C//DTD SVG 1.1//EN" "http://www.w3.org/Graphics/SVG/1.1/DTD/svg11.dtd"><svg width="1489px" height="1318px" version="1.1" xmlns="http://www.w3.org/2000/svg" xmlns:xlink="http://www.w3.org/1999/xlink" xml:space="preserve" xmlns:serif="http://www.serif.com/" style="fill-rule:evenodd;clip-rule:evenodd;stroke-linejoin:round;stroke-miterlimit:2;"><rect id="no-intersection-two-lanes" serif:id="no intersection two lanes" x="0.291" y="0.666" width="1488.33" height="1316.6" style="fill:none;"/><g id="grass"><g id="final"><g id="_-grass-F6" serif:id=" grass F6"><path id="F6" d="M38.413,624.681l216,-108l216,108l-216,108l-216,-108Z" style="fill:#45653d;"/></g><g id="_-grass-F61" serif:id=" grass F6"><path id="F61" serif:id="F6" d="M254.413,732.255l216,-108l216,108l-216,108l-216,-108Z" style="fill:#45653d;"/></g><g id="_-grass-F62" serif:id=" grass F6"><path id="F62" serif:id="F6" d="M470.84,840.468l216,-108l216,108l-216,108l-216,-108Z" style="fill:#45653d;"/></g><g id="_-grass-F63" serif:id=" grass F6"><path id="F63" serif:id="F6" d="M542.413,372.255l216,-108l216,108l-216,108l-216,-108Z" style="fill:#45653d;"/></g><g id="_-grass-F64" serif:id=" grass F6"><path id="F64" serif:id="F6" d="M758.413,480.255l216,-108l216,108l-216,108l-216,-108Z" style="fill:#45653d;"/></g><g id="_-grass-F65" serif:id=" grass F6"><path id="F65" serif:id="F6" d="M974.84,588.468l216,-108l216,108l-216,108l-216,-108Z" style="fill:#45653d;"/></g></g></g><g id="road"><g id="final1" serif:id="final"><g id="Road-D6" serif:id="Road D6"><path id="D6" d="M254.413,516.681l144,-72l216,108l-144,72l-216,-108Z" style="fill:#555;"/></g><g id="Road-D61" serif:id="Road D6"><path id="D61" serif:id="D6" d="M470.413,624.681l144,-72l216,108l-144,72l-216,-108Z" style="fill:#555;"/></g><g id="Road-D62" serif:id="Road D6"><path id="D62" serif:id="D6" d="M686.413,732.681l144,-72l216,108l-144,72l-216,-108Z" style="fill:#555;"/></g><g id="Road-D63" serif:id="Road D6"><path id="D63" serif:id="D6" d="M398.413,444.681l144,-72l216,108l-144,72l-216,-108Z" style="fill:#555;"/></g><g id="Road-D64" serif:id="Road D6"><path id="D64" serif:id="D6" d="M614.413,552.681l144,-72l216,108l-144,72l-216,-108Z" style="fill:#555;"/></g><g id="Road-D65" serif:id="Road D6"><path id="D65" serif:id="D6" d="M830.413,660.681l144,-72l216,108l-144,72l-216,-108Z" style="fill:#555;"/></g></g></g><g id="road-geometry" serif:id="road geometry"><path d="M402.413,442.681l648,324l-8,4l-648,-324l8,-4Z" style="fill:#fff;"/><path d="M1051.08,765.34l0,2.683l-8.671,4.335l-648.671,-324.335l0,-2.683l8.671,-4.336l648.671,324.336Zm-648.671,-322.659l-8,4l648,324l8,-4l-648,-324Z"/></g></svg>